# xmcd
#
# Track frame offsets:
#	150
#	11339
#	22478
#	34183
#	46451
#	57250
#	70001
#	84280
#	94752
#	106729
#	118693
#	131301
#	143146
#	154362
#	167957
#	179760
#	192947
#	207984
#	224755
#	237329
#
# Disc length: 3355 seconds
#
# Revision: 0
# Processed by: cddbd v1.5.1PL0 Copyright (c) Steve Scherf et al.
# Submitted via: dBpowerAMP V4.0
#
DISCID=250d1914
DTITLE=Duke Ellington - Blue is the Evening
DYEAR=2003
DGENRE=Blues
TTITLE0=The Jeep is Jumpin'
TTITLE1=Empty Ballroom Blues
TTITLE2=Krum Elbow Blues
TTITLE3=Lost in Medittation
TTITLE4=Carnival in Caroline
TTITLE5=Ol' Man River
TTITLE6=Blue is the Evening
TTITLE7=The Boys from Harlem
TTITLE8=San Juan Hill
TTITLE9=Fat Stuff Seranade
TTITLE10=Without a Song
TTITLE11=Sugar Hill Shim Sham
TTITLE12=Drummer's Delight
TTITLE13=If I Thought You Cared
TTITLE14=Hodge Podge
TTITLE15=Jeep's Blues
TTITLE16=Day Dream
TTITLE17=Things Ain't What They Used to Be
TTITLE18=Rexatious
TTITLE19=Echoes of Harlem
EXTD=
EXTT0=
EXTT1=
EXTT2=
EXTT3=
EXTT4=
EXTT5=
EXTT6=
EXTT7=
EXTT8=
EXTT9=
EXTT10=
EXTT11=
EXTT12=
EXTT13=
EXTT14=
EXTT15=
EXTT16=
EXTT17=
EXTT18=
EXTT19=
PLAYORDER=
